<svg data-v-6805eed4="" version="1.0" xmlns="http://www.w3.org/2000/svg" xmlns:xlink="http://www.w3.org/1999/xlink" width="100%" height="100%" viewBox="0 0 340.000000 250.000000" preserveAspectRatio="xMidYMid meet" color-interpolation-filters="sRGB" style="margin: auto;">   <g data-v-6805eed4="" class="iconmbgsvg" transform="translate(79.20999908447266,63.986690521240234)"><g fill="#333333" hollow-target="textNormalTran"><g opacity="0.55" transform="translate(34.540000915527344,0)"><g><rect fill="#333333" fill-opacity="0" stroke-width="2" x="0" y="0" width="112.5" height="122.02661807295564" class="image-rect"></rect> <svg x="0" y="0" width="112.5" height="122.02661807295564" filtersec="colorsb8555215155" class="image-svg-svg primary" style="overflow: visible;"><svg xmlns="http://www.w3.org/2000/svg" viewBox="-0.001562301185913384 -0.000027662112188409083 92.19300079345703 100.00003051757812"><path d="M76.57 55.43l-36.23-36L22 1.2A14.48 14.48 0 0 0 16.2 0C7.37 0 .19 8.1 0 18.16v43.47a18.67 18.67 0 0 0 18.43 18.91H69.2a17.86 17.86 0 0 0 10-15.92 17.4 17.4 0 0 0-2.63-9.19z" fill="#e62c5a" opacity=".8"></path><path d="M73.76 19.46H23a17.86 17.86 0 0 0-10 15.92 17.46 17.46 0 0 0 2.61 9.2l36.23 36L70.23 98.8A14.52 14.52 0 0 0 76 100c8.82 0 16-8.09 16.19-18.15V38.36a18.67 18.67 0 0 0-18.43-18.9z" fill="#0fabf6" opacity=".8"></path><path d="M15.61 44.58l36.23 36H69.2a17.86 17.86 0 0 0 10-15.92 17.4 17.4 0 0 0-2.62-9.19l-36.23-36H23a17.86 17.86 0 0 0-10 15.91 17.46 17.46 0 0 0 2.61 9.2z" fill="#501b8d" opacity=".5"></path></svg></svg> <!----></g></g> <g transform="translate(0,34.853309631347656)"><g data-gra="path-name" fill-rule="" class="tp-name"><g transform="scale(1)"><g><path d="M17.48 4.4C26.72 4.4 38.39 0.9 46.42-3.59 47.79-4.36 49.03-5.21 50.31-6.07 50.7-6.33 50.87-6.24 50.87-6.8 50.74-7.1 50.23-7.18 49.93-7.18 49.03-7.18 46.16-5 45.14-4.45 37.62-0.38 26.03 3.25 17.48 3.25 11.67 3.25 6.8 1.45 6.8-5.98 6.8-19.45 26.97-35.18 39.75-35.31 42.19-35.31 43.09-33.81 43.09-31.97 43.09-28.21 40.05-22.7 35.14-22.27 34.84-22.23 34.54-22.23 34.24-22.23 32.96-22.23 31.37-22.4 29.92-22.4 27.36-22.4 25.05-21.93 25.05-19.24 25.05-16.88 27.53-16.84 27.96-16.84 35.44-16.84 44.84-25.13 44.84-32.74 44.84-35.82 41.21-36.38 39.33-36.38 26.29-36.38 0.3-18.89 0.3-5.98 0.3 2.14 11.16 4.4 17.48 4.4ZM59.16 4.06C64.12 4.06 66.34-4.83 68.52-6.41L68.69-6.5C68.86-6.63 68.95-6.75 68.95-6.88 68.95-7.22 68.65-7.39 68.31-7.39 67.24-7.39 63.65 1.03 61.3 1.03 60.66 1.03 60.48 0.56 60.48-0.68 60.48-1.75 60.66-3.16 60.66-4.53 60.66-6.84 60.19-8.98 57.66-8.98 54.93-8.98 53.6-3.42 52.58-1.33 52.11-3.46 51.89-5.09 51.89-6.07 53.35-9.06 55.44-16.24 55.44-21.33 55.44-24.54 54.63-26.89 52.28-26.89 48.73-26.89 47.62-22.23 47.62-16.67 47.62-8.81 49.8 0.9 50.27 1.84 50.4 2.09 50.82 2.27 51.25 2.27 51.68 2.27 52.11 2.09 52.28 1.67 53.77-1.8 55.1-7.01 56.85-7.01L56.98-7.01C57.02-7.01 57.36-6.97 57.36-6.03 57.36-5.39 57.19-4.32 56.72-2.56 56.59-2.09 56.47-1.2 56.47-0.26 56.47 1.71 57.02 4.06 59.16 4.06ZM51.72-8.38C51.59-9.96 51.34-13.68 51.34-17.18 51.34-20.6 51.59-23.85 52.49-24.66 52.62-24.79 52.75-24.83 52.88-24.83 53.52-24.83 53.86-23.13 53.86-20.69 53.86-17.01 53.09-11.63 51.72-8.38ZM77.67 0.9C81.94 0.9 85.53-3.63 88.06-6.58 88.23-6.75 88.31-7.01 88.31-7.22 88.31-7.44 88.23-7.57 88.1-7.57 88.01-7.57 87.93-7.52 87.84-7.44 86.52-5.94 82.54-0.81 79.34-0.81 78.48-0.81 77.75-1.03 77.75-2.01 77.75-3.85 80.02-6.92 80.02-7.87 80.02-9.1 78.74-9.87 77.58-9.87 76.73-9.87 75.96-9.45 75.4-8.81 74.63-9.92 73.78-10.9 72.32-10.9 69.25-10.9 66.51-6.97 66.51-4.1 66.51-2.44 67.37-1.54 69.03-1.54 71.47-1.71 73.01-4.53 75.57-6.41 75.57-6.2 75.1-4.57 75.1-2.78 75.15-0.68 75.49 0.9 77.67 0.9ZM70.79-3.8C70.49-3.8 70.27-4.15 70.27-4.92 70.27-7.01 71.47-9.4 72.54-9.83 73.27-9.83 74.12-9.02 74.12-8.08 74.12-7.87 74.08-7.69 73.99-7.48 73.69-6.84 71.73-3.8 70.79-3.8ZM92.93 1.5C95.79 1.5 98.91-0.81 101.05-2.56 101.65-3.08 105.97-6.54 105.97-6.97 105.97-7.39 105.24-7.52 104.94-7.52 104.68-7.52 104.34-7.52 104.17-7.31 102.5-5 96.86 0.47 93.65 0.47 93.44 0.47 93.23 0.43 93.01 0.38 90.79-0.21 90.24-4.62 90.24-8.25 90.24-10.73 90.49-12.87 90.66-13.25 90.75-13.34 101.22-13.76 106.82-13.76 108.19-13.76 109.3-13.76 109.86-13.68 110.97-13.51 110.8-12.95 111.61-12.95 112.04-12.95 112.29-13.08 112.29-13.38 112.29-13.51 112.21-13.72 111.99-13.93 111.52-14.41 108.1-14.58 104.13-14.58 98.61-14.58 92.07-14.28 90.88-14.23 91-15.35 92.37-20.6 94.04-22.44 94.21-22.61 94.3-22.83 94.3-23 94.3-23.98 92.37-24.88 90.79-24.88 90.06-24.88 89.34-24.66 88.95-24.15 88.1-23.04 87.5-15.9 87.11-14.15 84.85-14.06 81.64-13.76 79.51-13.76 78.52-13.76 77.97-13.85 77.54-13.93 77.5-13.93 77.45-13.85 77.45-13.68 77.45-13.38 77.71-12.82 78.69-12.82 81.39-12.82 84.34-13.12 87.03-13.12L86.99-9.49C86.99-4.62 87.58 1.5 92.93 1.5ZM116.82 15.94C117.59 15.94 117.98 15.94 117.98 15.13L117.98 13.34C117.98-2.65 120.58-25.18 122.59-29.11 126.95-29.11 132.38-29.28 137.04-29.28 141.1-29.28 144.65-29.15 146.45-28.64 146.74-28.55 147-28.51 147.21-28.51 148.24-28.51 148.45-29.37 148.45-30.05 148.45-30.48 148.37-30.82 148.33-30.95 148.03-31.93 146.66-32.02 145.8-32.02 143.88-32.02 142-31.8 140.08-31.55 133.19-30.73 124.73-30.56 116.91-30.56 110.37-30.56 104.3-30.69 99.94-30.69L96.69-30.65C96.35-30.65 95.96-30.61 95.96-30.18 95.96-30.01 96.39-29.75 96.52-29.71 97.54-29.37 102.16-29.32 104.6-29.32 106.01-29.32 115.45-29.24 115.75-29.07L115.75 5.43C115.75 8.38 115.88 11.28 115.88 14.23L115.84 15.13C115.84 15.6 115.97 15.94 116.82 15.94ZM136.87 0.9C141.14 0.9 144.74-3.63 147.26-6.58 147.43-6.75 147.51-7.01 147.51-7.22 147.51-7.44 147.43-7.57 147.3-7.57 147.21-7.57 147.13-7.52 147.04-7.44 145.72-5.94 141.74-0.81 138.54-0.81 137.68-0.81 136.96-1.03 136.96-2.01 136.96-3.85 139.22-6.92 139.22-7.87 139.22-9.1 137.94-9.87 136.78-9.87 135.93-9.87 135.16-9.45 134.6-8.81 133.84-9.92 132.98-10.9 131.53-10.9 128.45-10.9 125.71-6.97 125.71-4.1 125.71-2.44 126.57-1.54 128.24-1.54 130.67-1.71 132.21-4.53 134.78-6.41 134.78-6.2 134.31-4.57 134.31-2.78 134.35-0.68 134.69 0.9 136.87 0.9ZM129.99-3.8C129.69-3.8 129.48-4.15 129.48-4.92 129.48-7.01 130.67-9.4 131.74-9.83 132.47-9.83 133.32-9.02 133.32-8.08 133.32-7.87 133.28-7.69 133.19-7.48 132.89-6.84 130.93-3.8 129.99-3.8ZM152.43 2.61C156.58 2.61 160.72-1.84 162.6-5.98 162.69-6.24 162.73-6.45 162.73-6.63 162.73-7.18 162.39-7.39 162.05-7.39 161.71-7.39 161.36-7.22 161.23-6.88 160.25-4.49 157.09 1.71 152.64 1.71 150.38 1.71 149.78-3.38 149.78-5.43L149.78-5.81C152.94-10.26 154.99-17.01 154.99-23.51 154.99-25.18 154.22-26.89 152.6-26.89 149.78-26.89 147.68-22.23 147.13-19.88 146.53-17.4 146.15-14.15 146.15-10.86 146.15-4.15 147.77 2.61 152.43 2.61ZM149.78-8.25C149.78-10.86 151.53-24.88 153.03-24.88 153.67-24.88 153.93-23.94 153.93-22.53 153.93-18.29 151.62-9.7 149.78-8.25ZM162.05 5.47C162.56 5.47 162.9 5.39 163.16 4.96 163.37 4.53 163.41 3.12 163.5 2.65 164.06-0.98 165.51-2.82 166.41-3.76 166.32-3.51 166.02-2.52 166.02-1.41 166.02 0.3 166.71 2.35 169.7 2.91 170.08 2.99 170.51 2.99 170.9 2.99 176.67 2.99 181.88-4.36 181.88-6.58 181.88-7.18 181.41-7.31 180.98-7.31 180.6-7.31 180.47-7.14 180.26-6.88 178.8-4.96 176.28 1.45 171.71 1.45 171.19 1.45 170.64 1.37 170.08 1.2 169.4 0.98 169.14 0.43 169.14-0.3 169.14-2.95 172.78-8.04 173.5-8.04 173.63-8.04 173.89-7.87 174.06-7.87 174.27-7.87 174.44-7.95 174.44-8.16 174.44-8.93 173.29-9.28 172.69-9.28 170.21-9.28 165.51-5.26 163.84-3.46 163.93-4.49 163.97-4.87 164.18-6.07 167.22-7.82 170.38-16.88 170.38-22.91 170.38-26.07 169.53-28.43 167.3-28.43 166.62-28.43 165.98-28 165.51-27.49 162.26-23.81 160.68-11.07 160.68-2.56 160.68 2.09 161.15 5.47 162.05 5.47ZM164.14-8.12C164.48-11.03 166.02-26.93 167.43-26.93 168.25-26.89 168.59-25.35 168.59-23.51 168.59-18.72 166.54-10.34 164.14-8.12Z" transform="translate(-0.30000001192092896, 36.380001068115234)"></path></g></g></g></g></g></g><defs v-gra="od"></defs></svg>