<svg width="148" height="88" viewBox="0 0 148 88" fill="none" xmlns="http://www.w3.org/2000/svg">
<g filter="url(#filter0_d_10_40)">
<g opacity="0.55">
<g clip-path="url(#clip0_10_40)">
<g clip-path="url(#clip1_10_40)">
<path opacity="0.8" d="M89.6681 36.3396L61.7344 12.7382L47.5941 0.786732C46.1832 0.265303 44.6607 -0.00253691 43.1222 1.81089e-05C36.3142 1.81089e-05 30.7784 5.31033 30.6319 11.9056V40.4043C30.6074 42.0117 30.9556 43.6075 31.6565 45.1005C32.3574 46.5935 33.3973 47.9544 34.7168 49.1057C36.0363 50.2569 37.6096 51.1758 39.3469 51.81C41.0841 52.4441 42.9512 52.7811 44.8416 52.8016H83.9858C86.285 51.8435 88.2246 50.3592 89.5866 48.5155C90.9486 46.6718 91.679 44.5417 91.6959 42.3646C91.6947 40.2347 90.9923 38.1476 89.6681 36.3396Z" fill="#E62C5A"/>
<path opacity="0.8" d="M87.5016 12.7579H48.3651C46.0659 13.716 44.1263 15.2003 42.7643 17.044C41.4023 18.8877 40.6719 21.0177 40.655 23.1949C40.6526 25.3255 41.3495 27.4143 42.6674 29.2264L70.6011 52.8278L84.7799 64.7728C86.184 65.2908 87.6981 65.5586 89.2287 65.5595C96.029 65.5595 101.565 60.2557 101.711 53.6604V25.1486C101.759 21.9034 100.288 18.7751 97.6236 16.4515C94.9589 14.1279 91.3181 12.7993 87.5016 12.7579Z" fill="#0FABF6"/>
<path opacity="0.5" d="M42.6674 29.2264L70.6011 52.8279H83.9858C86.2851 51.8697 88.2246 50.3854 89.5866 48.5418C90.9486 46.6981 91.679 44.568 91.6959 42.3908C91.697 40.2615 90.9973 38.1745 89.6759 36.3659L61.7422 12.7645H48.3651C46.067 13.7221 44.1282 15.2054 42.7663 17.0478C41.4044 18.8902 40.6733 21.0189 40.655 23.195C40.6526 25.3255 41.3495 27.4144 42.6674 29.2264Z" fill="#501B8D"/>
</g>
</g>
</g>
<path d="M17.246 49.5848C24.3701 49.5848 33.3678 47.2902 39.559 44.3466C40.6153 43.8418 41.5713 43.2845 42.5582 42.7207C42.8589 42.5502 42.99 42.6092 42.99 42.2421C42.8897 42.0454 42.4965 41.993 42.2652 41.993C41.5713 41.993 39.3585 43.4222 38.5721 43.7827C32.7741 46.451 23.8381 48.8308 17.246 48.8308C12.7664 48.8308 9.01157 47.6508 9.01157 42.7797C9.01157 33.9488 24.5628 23.6363 34.4163 23.5511C36.2976 23.5511 36.9915 24.5345 36.9915 25.7408C36.9915 28.2058 34.6476 31.8181 30.862 32.1001C30.6307 32.1263 30.3994 32.1263 30.1681 32.1263C29.1812 32.1263 27.9553 32.0148 26.8373 32.0148C24.8635 32.0148 23.0825 32.323 23.0825 34.0865C23.0825 35.6337 24.9946 35.6599 25.3261 35.6599C31.0933 35.6599 38.3408 30.225 38.3408 25.236C38.3408 23.2167 35.542 22.8496 34.0925 22.8496C24.0386 22.8496 4 34.316 4 42.7797C4 48.1031 12.3732 49.5848 17.246 49.5848ZM49.3817 49.3619C53.2059 49.3619 54.9175 43.5336 56.5983 42.4978L56.7294 42.4388C56.8604 42.3536 56.9298 42.2749 56.9298 42.1897C56.9298 41.9667 56.6985 41.8553 56.4364 41.8553C55.6114 41.8553 52.8435 47.3754 51.0316 47.3754C50.5382 47.3754 50.3994 47.0673 50.3994 46.2543C50.3994 45.5529 50.5382 44.6285 50.5382 43.7303C50.5382 42.2159 50.1758 40.8129 48.2251 40.8129C46.1203 40.8129 45.0948 44.458 44.3084 45.8282C43.946 44.4318 43.7764 43.3632 43.7764 42.7207C44.9021 40.7605 46.5135 36.0533 46.5135 32.7163C46.5135 30.6119 45.889 29.0712 44.0771 29.0712C41.34 29.0712 40.4842 32.1263 40.4842 35.7714C40.4842 40.9244 42.165 47.2902 42.5274 47.9064C42.6276 48.0703 42.9514 48.1883 43.283 48.1883C43.6145 48.1883 43.946 48.0703 44.0771 47.795C45.2259 45.5201 46.2513 42.1044 47.6006 42.1044H47.7008C47.7317 42.1044 47.9938 42.1306 47.9938 42.7469C47.9938 43.1665 47.8628 43.868 47.5004 45.0218C47.4002 45.3299 47.3076 45.9134 47.3076 46.5297C47.3076 47.8212 47.7317 49.3619 49.3817 49.3619ZM43.6453 41.2063C43.5451 40.1704 43.3524 37.7316 43.3524 35.437C43.3524 33.1949 43.5451 31.0642 44.239 30.5332C44.3392 30.448 44.4395 30.4217 44.5397 30.4217C45.0332 30.4217 45.2953 31.5362 45.2953 33.1359C45.2953 35.5485 44.7016 39.0756 43.6453 41.2063ZM63.653 47.2902C66.9453 47.2902 69.7132 44.3203 71.6638 42.3863C71.7949 42.2749 71.8566 42.1044 71.8566 41.9668C71.8566 41.8225 71.7949 41.7373 71.6947 41.7373C71.6253 41.7373 71.5636 41.7701 71.4942 41.8225C70.4765 42.8059 67.4079 46.1691 64.9406 46.1691C64.2776 46.1691 63.7147 46.0249 63.7147 45.3824C63.7147 44.1761 65.4649 42.1634 65.4649 41.5406C65.4649 40.7342 64.478 40.2294 63.5837 40.2294C62.9283 40.2294 62.3346 40.5048 61.9029 40.9244C61.3092 40.1966 60.6538 39.5542 59.5281 39.5542C57.1611 39.5542 55.0486 42.1306 55.0486 44.0122C55.0486 45.1005 55.7116 45.6905 56.9915 45.6905C58.8728 45.5791 60.0601 43.7303 62.0339 42.4978C62.0339 42.6355 61.6715 43.7041 61.6715 44.8776C61.7101 46.2543 61.9722 47.2902 63.653 47.2902ZM58.3485 44.2089C58.1172 44.2089 57.9476 43.9794 57.9476 43.4746C57.9476 42.1044 58.8728 40.5376 59.6978 40.2556C60.2606 40.2556 60.916 40.7867 60.916 41.4029C60.916 41.5406 60.8851 41.6586 60.8157 41.7963C60.5844 42.2159 59.0732 44.2089 58.3485 44.2089ZM75.4187 47.6835C77.6237 47.6835 80.0293 46.1691 81.6793 45.0218C82.1419 44.6809 85.4726 42.4126 85.4726 42.1306C85.4726 41.8553 84.9098 41.7701 84.6785 41.7701C84.478 41.7701 84.2159 41.7701 84.0848 41.9077C82.7972 43.4222 78.4487 47.0083 75.9738 47.0083C75.8119 47.0083 75.65 46.982 75.4803 46.9493C73.7687 46.5625 73.3446 43.6713 73.3446 41.2915C73.3446 39.6656 73.5374 38.2626 73.6685 38.0135C73.7379 37.9545 81.8103 37.6792 86.128 37.6792C87.1843 37.6792 88.0401 37.6792 88.4719 37.7316C89.3277 37.8431 89.1966 38.2102 89.8211 38.2102C90.1527 38.2102 90.3454 38.125 90.3454 37.9283C90.3454 37.8431 90.2837 37.7054 90.1141 37.5677C89.7517 37.253 87.1149 37.1416 84.054 37.1416C79.798 37.1416 74.7556 37.3383 73.8381 37.371C73.9306 36.6368 74.9869 33.1949 76.2745 31.9886C76.4056 31.8771 76.4749 31.7329 76.4749 31.6215C76.4749 30.979 74.9869 30.3889 73.7687 30.3889C73.2059 30.3889 72.6507 30.5332 72.35 30.8675C71.6947 31.5952 71.2321 36.2762 70.9314 37.4235C69.1889 37.4825 66.714 37.6792 65.0717 37.6792C64.3084 37.6792 63.8843 37.6202 63.5528 37.5677C63.522 37.5677 63.4834 37.6202 63.4834 37.7316C63.4834 37.9283 63.6839 38.2954 64.4395 38.2954C66.5212 38.2954 68.7957 38.0987 70.8697 38.0987L70.8389 40.4786C70.8389 43.6713 71.2938 47.6835 75.4187 47.6835ZM93.8381 57.1503C94.4318 57.1503 94.7325 57.1503 94.7325 56.6193V55.4458C94.7325 44.9628 96.7371 30.1923 98.2868 27.6158C101.648 27.6158 105.835 27.5043 109.428 27.5043C112.558 27.5043 115.295 27.5896 116.683 27.9239C116.907 27.9829 117.107 28.0091 117.269 28.0091C118.063 28.0091 118.225 27.4453 118.225 26.9995C118.225 26.7176 118.163 26.4947 118.133 26.4095C117.901 25.767 116.845 25.708 116.182 25.708C114.702 25.708 113.252 25.8522 111.772 26.0161C106.46 26.5537 99.9368 26.6652 93.9075 26.6652C88.8651 26.6652 84.185 26.5799 80.8234 26.5799L78.3177 26.6062C78.0555 26.6062 77.7548 26.6324 77.7548 26.9143C77.7548 27.0257 78.0863 27.1962 78.1866 27.2224C78.973 27.4453 82.5351 27.4781 84.4163 27.4781C85.5035 27.4781 92.7818 27.5306 93.0131 27.642V50.26C93.0131 52.194 93.1133 54.0953 93.1133 56.0293L93.0825 56.6193C93.0825 56.9274 93.1827 57.1503 93.8381 57.1503ZM109.297 47.2902C112.589 47.2902 115.365 44.3203 117.308 42.3863C117.439 42.2749 117.5 42.1044 117.5 41.9668C117.5 41.8225 117.439 41.7373 117.338 41.7373C117.269 41.7373 117.207 41.7701 117.138 41.8225C116.12 42.8059 113.052 46.1691 110.584 46.1691C109.921 46.1691 109.366 46.0249 109.366 45.3824C109.366 44.1761 111.109 42.1634 111.109 41.5406C111.109 40.7342 110.122 40.2294 109.227 40.2294C108.572 40.2294 107.978 40.5048 107.547 40.9244C106.961 40.1966 106.298 39.5542 105.18 39.5542C102.805 39.5542 100.692 42.1306 100.692 44.0122C100.692 45.1005 101.355 45.6905 102.643 45.6905C104.517 45.5791 105.704 43.7303 107.685 42.4978C107.685 42.6355 107.323 43.7041 107.323 44.8776C107.354 46.2543 107.616 47.2902 109.297 47.2902ZM103.992 44.2089C103.761 44.2089 103.599 43.9794 103.599 43.4746C103.599 42.1044 104.517 40.5376 105.342 40.2556C105.904 40.2556 106.56 40.7867 106.56 41.4029C106.56 41.5406 106.529 41.6586 106.46 41.7963C106.228 42.2159 104.717 44.2089 103.992 44.2089ZM121.294 48.4112C124.493 48.4112 127.685 45.4938 129.135 42.7797C129.204 42.6092 129.235 42.4716 129.235 42.3536C129.235 41.993 128.973 41.8553 128.711 41.8553C128.449 41.8553 128.179 41.9667 128.079 42.1897C127.323 43.7565 124.887 47.8212 121.456 47.8212C119.713 47.8212 119.251 44.4842 119.251 43.1403V42.8911C121.687 39.9737 123.268 35.5485 123.268 31.2871C123.268 30.1923 122.674 29.0712 121.425 29.0712C119.251 29.0712 117.631 32.1263 117.207 33.6669C116.745 35.2928 116.452 37.4235 116.452 39.5804C116.452 43.9794 117.701 48.4112 121.294 48.4112ZM119.251 41.2915C119.251 39.5804 120.6 30.3889 121.756 30.3889C122.25 30.3889 122.45 31.0052 122.45 31.9296C122.45 34.7093 120.669 40.3409 119.251 41.2915ZM128.711 50.2862C129.104 50.2862 129.366 50.2338 129.567 49.9519C129.729 49.67 129.759 48.7456 129.829 48.4375C130.261 46.0577 131.379 44.8514 132.072 44.2351C132.003 44.399 131.772 45.048 131.772 45.7758C131.772 46.8968 132.304 48.2408 134.609 48.6079C134.902 48.6604 135.234 48.6604 135.534 48.6604C139.983 48.6604 144 43.8418 144 42.3863C144 41.993 143.638 41.9077 143.306 41.9077C143.013 41.9077 142.913 42.0192 142.751 42.1897C141.625 43.4484 139.682 47.6508 136.159 47.6508C135.758 47.6508 135.334 47.5983 134.902 47.4869C134.378 47.3426 134.177 46.982 134.177 46.5035C134.177 44.7661 136.984 41.4292 137.539 41.4292C137.639 41.4292 137.84 41.5406 137.971 41.5406C138.133 41.5406 138.264 41.4882 138.264 41.3505C138.264 40.8457 137.377 40.6162 136.914 40.6162C135.002 40.6162 131.379 43.2517 130.091 44.4318C130.16 43.7565 130.191 43.5074 130.353 42.7207C132.697 41.5734 135.133 35.6337 135.133 31.6805C135.133 29.6088 134.478 28.0616 132.759 28.0616C132.234 28.0616 131.741 28.3435 131.379 28.6778C128.873 31.0904 127.655 39.4427 127.655 45.0218C127.655 48.0703 128.017 50.2862 128.711 50.2862ZM130.322 41.3767C130.584 39.4689 131.772 29.045 132.859 29.045C133.491 29.0712 133.753 30.0808 133.753 31.2871C133.753 34.4274 132.173 39.9213 130.322 41.3767Z" fill="#333333"/>
</g>
<defs>
<filter id="filter0_d_10_40" x="0" y="0" width="148" height="88" filterUnits="userSpaceOnUse" color-interpolation-filters="sRGB">
<feFlood flood-opacity="0" result="BackgroundImageFix"/>
<feColorMatrix in="SourceAlpha" type="matrix" values="0 0 0 0 0 0 0 0 0 0 0 0 0 0 0 0 0 0 127 0" result="hardAlpha"/>
<feOffset dy="4"/>
<feGaussianBlur stdDeviation="2"/>
<feComposite in2="hardAlpha" operator="out"/>
<feColorMatrix type="matrix" values="0 0 0 0 0 0 0 0 0 0 0 0 0 0 0 0 0 0 0.25 0"/>
<feBlend mode="normal" in2="BackgroundImageFix" result="effect1_dropShadow_10_40"/>
<feBlend mode="normal" in="SourceGraphic" in2="effect1_dropShadow_10_40" result="shape"/>
</filter>
<clipPath id="clip0_10_40">
<rect width="86.7386" height="80" fill="white" transform="translate(30.6307)"/>
</clipPath>
<clipPath id="clip1_10_40">
<rect width="71.0817" height="65.5595" fill="white" transform="translate(30.6307)"/>
</clipPath>
</defs>
</svg>
